<svg xmlns="http://www.w3.org/2000/svg" width="72.489" height="86.986" viewBox="0 0 72.489 86.986"><g transform="translate(-114.371 -79.246)"><g transform="translate(112.371 77.246)"><path d="M29.45,11A1.45,1.45,0,0,0,28,12.45V13.9a1.45,1.45,0,0,0,2.9,0V12.45A1.45,1.45,0,0,0,29.45,11Z" transform="translate(11.694 4.048)"/><path d="M35.45,15.349A1.45,1.45,0,0,0,36.9,13.9V12.45a1.45,1.45,0,0,0-2.9,0V13.9A1.45,1.45,0,0,0,35.45,15.349Z" transform="translate(14.393 4.048)"/><rect width="2" height="3" transform="translate(44.629 49.754)"/><rect width="2" height="4" transform="translate(44.629 54.754)"/><path d="M23.022,51.83l5.118,2.415a1.356,1.356,0,0,0-.038.188v33.1a1.45,1.45,0,0,0,1.45,1.45H70.139a1.45,1.45,0,0,0,1.45-1.45v-29h1.45a1.45,1.45,0,0,0,1.45-1.45V41.828a7.21,7.21,0,0,0-4.007-6.483L62.187,31.2l-6.74-4.045a10.168,10.168,0,0,0,.194-1.962V20.847h1.45a4.349,4.349,0,1,0,0-8.7H55.813L59.846,4.1a1.45,1.45,0,0,0-1.3-2.1H42.321a6.985,6.985,0,0,0-6.976,6.976v3.172h-1.45a4.349,4.349,0,0,0,0,8.7h1.45V25.2a10.169,10.169,0,0,0,.194,1.962l-6.659,4L26.024,32.4l-.935-.435a1.415,1.415,0,0,0-.406-.622,1.45,1.45,0,0,0-1.176-.323l-8.7,1.45a1.45,1.45,0,0,0-.893.523L3.595,45.9A7.271,7.271,0,0,0,2,50.422v.87a5.8,5.8,0,0,0,5.8,5.8h2.32a4.316,4.316,0,0,0,.889-.1,13.11,13.11,0,0,0,4.239-1.273ZM35.345,17.947h-1.45a1.45,1.45,0,1,1,0-2.9h1.45ZM47.118,86.087h-3.25a4.371,4.371,0,0,1-4.306-3.722,3.427,3.427,0,0,1,.013-1c.017-.116.07-.245.1-.365a5.309,5.309,0,0,1,.2-.71H51.117a5.551,5.551,0,0,1,.193.7c.029.125.084.258.1.378a3.427,3.427,0,0,1,.013,1,4.371,4.371,0,0,1-4.306,3.722Zm1.719-14.5H42.149l-3.116-8.306,3.838.639a15.845,15.845,0,0,0,5.245,0l3.838-.639Zm1.151,5.8H41l1.135-2.9h6.721Zm18.7,8.7h-5.8v-2.9h5.8Zm0-5.8h-5.8v-2.9h5.8Zm0-5.8h-5.8V58.541h5.8Zm-11.6-42.964,3.7,2.218,8.393,4.2a4.325,4.325,0,0,1,2.4,3.89V55.642h-8.7v-8.7a1.45,1.45,0,0,0-.425-1.025l-5.375-5.375Zm0-16.477a1.45,1.45,0,1,1,0,2.9h-1.45v-2.9ZM38.244,8.976A4.083,4.083,0,0,1,42.321,4.9H56.2l-2.9,5.8H38.244Zm0,10.421V13.6h14.5v8.438l-6.412-1.07.461-.921a1.45,1.45,0,1,0-2.6-1.3l-1.251,2.5-4.7.784Zm0,5.577,7.249-1.208,7.249,1.208V25.2a7.249,7.249,0,1,1-14.5,0ZM36.795,30.4a10.119,10.119,0,0,0,17.4,0v9.3H38.259l.016-.046a1.45,1.45,0,0,0-.742-1.808l-.738-.348Zm9.568,13.932-1.95-1.45a1.463,1.463,0,0,0-1.356-.2l-6.773,2.43.941-2.576a1.383,1.383,0,0,0,.294.061H55.041l4.95,4.95V86.087h-7.1a6.814,6.814,0,0,0,.906-6.939l-2.4-6.121L55.55,61.951a1.45,1.45,0,0,0-1.595-1.94L47.64,61.062a12.981,12.981,0,0,1-4.288,0l-6.315-1.051a1.45,1.45,0,0,0-1.595,1.94L39.6,73.027l-2.078,5.28h0l-.329.839h0a6.805,6.805,0,0,0,.909,6.94H31V55.062a2.818,2.818,0,0,0,2.33-1.867l1.66-4.541L43.3,45.667l1.325.987a1.45,1.45,0,0,0,1.735-2.321ZM30.126,33.773a1.276,1.276,0,0,0,.165-.086l3.6-2.162v4.6l-4.4-2.075ZM25.2,35.223l.486.231-.486.826ZM28.313,36.7,35.1,39.9,30.6,52.207h0l-8.931-4.216ZM10.542,54.125a10.183,10.183,0,0,1-1.132.067H7.8a2.9,2.9,0,0,1-2.9-2.9v-.87a4.365,4.365,0,0,1,.953-2.717L15.834,35.23,22.3,34.157v4.087H17.947a1.45,1.45,0,0,0-1.363.954l-5.1,14.04A1.45,1.45,0,0,1,10.542,54.125Zm8.42-12.981h3.372l-3.161,5.377a2.868,2.868,0,0,0,.632,3.671l-5.048,2.525Z" transform="translate(0 0)"/></g></g></svg>