<?xml version="1.0" encoding="iso-8859-1"?>
<!-- Generator: Adobe Illustrator 19.0.0, SVG Export Plug-In . SVG Version: 6.00 Build 0)  -->
<svg version="1.1" id="Capa_1" xmlns="http://www.w3.org/2000/svg" xmlns:xlink="http://www.w3.org/1999/xlink" x="0px" y="0px"
	 viewBox="0 0 488.021 488.021" style="enable-background:new 0 0 488.021 488.021;" xml:space="preserve">
<g>
	<g>
		<g>
			<path d="M244.011,24.021c-44.183,0-80,35.817-80,80s35.817,80,80,80s80-35.817,80-80
				C323.962,59.858,288.173,24.07,244.011,24.021z M244.011,168.021c-35.346,0-64-28.654-64-64c0-35.346,28.654-64,64-64
				c35.346,0,64,28.654,64,64C307.971,139.351,279.34,167.981,244.011,168.021z"/>
			<rect x="236.011" y="96.021" width="16" height="16"/>
			<rect x="236.011" y="64.021" width="16" height="16"/>
			<rect x="236.011" y="128.021" width="16" height="16"/>
			<rect x="268.011" y="96.021" width="16" height="16"/>
			<rect x="204.011" y="96.021" width="16" height="16"/>
			<rect x="204.011" y="64.021" width="16" height="16"/>
			<rect x="268.011" y="64.021" width="16" height="16"/>
			<rect x="204.011" y="128.021" width="16" height="16"/>
			<rect x="268.011" y="128.021" width="16" height="16"/>
			<path d="M348.011,56.021h-11.832c-26.426-50.903-89.113-70.746-140.016-44.32c-18.985,9.856-34.464,25.334-44.32,44.32h-11.832
				c-13.255,0-24,10.745-24,24v48c0,13.255,10.745,24,24,24h11.832c9.879,18.879,25.289,34.289,44.168,44.168v19.832
				c0.042,10.134,6.445,19.15,16,22.528v221.872c0.013,15.238,12.362,27.587,27.6,27.6h8.8c15.238-0.013,27.587-12.362,27.6-27.6
				V238.549c9.555-3.378,15.958-12.394,16-22.528v-19.832c18.879-9.879,34.289-25.289,44.168-44.168h11.832
				c13.255,0,24-10.745,24-24v-48C372.011,66.766,361.265,56.021,348.011,56.021z M145.099,136.021h-5.088c-4.418,0-8-3.582-8-8v-48
				c0-4.418,3.582-8,8-8h5.088C138.316,92.815,138.316,115.227,145.099,136.021z M260.011,460.421
				c-0.004,6.405-5.195,11.596-11.6,11.6h-8.8c-6.405-0.004-11.596-5.195-11.6-11.6v-220.4h32V460.421z M276.011,216.021
				c0,4.418-3.582,8-8,8h-48c-4.418,0-8-3.582-8-8v-13.088c20.794,6.782,43.206,6.782,64,0V216.021z M244.011,192.021
				c-48.601,0-88-39.399-88-88s39.399-88,88-88s88,39.399,88,88C331.953,152.598,292.588,191.964,244.011,192.021z M356.011,128.021
				c0,4.418-3.582,8-8,8h-5.088c6.782-20.794,6.782-43.206,0-64h5.088c4.418,0,8,3.582,8,8V128.021z"/>
		</g>
	</g>
</g>
<g>
</g>
<g>
</g>
<g>
</g>
<g>
</g>
<g>
</g>
<g>
</g>
<g>
</g>
<g>
</g>
<g>
</g>
<g>
</g>
<g>
</g>
<g>
</g>
<g>
</g>
<g>
</g>
<g>
</g>
</svg>
