<svg xmlns="http://www.w3.org/2000/svg" width="761.959" height="813.25" viewBox="0 0 761.959 813.25"><g transform="translate(0 0.25)"><path d="M659,545c10,16,34,15,47,7,12-8,19-7,25-23,6-14,14-25,19-38,2-4,2-6-1-4-15,8-19,9-37,12-16,3-33,0-46,12-2,2-18,19-15,22,2,2,10,5,17,6,8,1,15,1,22-1,5-2,35-16,34-15-3,2-14,11-29,16C679,544,658,545,659,545Z" fill="rgba(48,39,28,0.29)" fill-rule="evenodd"/><path d="M661,554c17-1,36,10,41,24,12,30,8,15,3,44-1,2-5,42-8,34-8-18-17-31-33-44-19-16-25-52-17-53,10-1,28,12,34,20,3,4,15,32,15,31-3-20-19-41-28-49C663,557,643,555,661,554Z" fill="rgba(48,39,28,0.29)" fill-rule="evenodd"/><path d="M692,498c47-4,28-4,50-32,12-16,19-12,18-39,0-17,6-20-3-41-7-17-4-46-11-70-5-16-6,10-15,22-5,8-33,33-42,42-21,20-71,105-58,115,2,1,8-1,18-7,26-14,51-33,66-59a118.73,118.73,0,0,0,16-37c1-3,6-41,4-23,0,7-2,21-4,33-16,68-107,87-85,109C662,507,686,499,692,498Z" fill="rgba(48,39,28,0.29)" fill-rule="evenodd"/><path d="M625,569c94,94-17,136-28,164-8,22-72,52-54,31s12-66,12-93c-1-23,1-29,11-50,2-6,32-78,45-47,2,5,4,16,4,34-1,37-44,139-44,139,29-42,52-111,48-150-1-6-8-32-2-32C619,565,621,566,625,569Z" fill="rgba(48,39,28,0.29)" fill-rule="evenodd"/><path d="M543,320c-19-21-35-29-65-24-21,3-22,10-35,21-1,1-15,6-11,9,1,0,41,0,48,1,14,2,30,10,41,20,3,3,5,6,2,4-17-11-22-18-44-20-13-1-26,1-40,0-3,0-4-1-3,2,9,20,37,31,58,33,17,2,15,4,27,7,5,2,15-14,17-17,6-8,11-15,17-23C559,328,548,326,543,320Z" fill="rgba(48,39,28,0.29)" fill-rule="evenodd"/><path d="M486,479c28,22,32,38,41,71,9,32,9,22,0,51-17,53-14,41-62,70-15,9-36,26-48,38-6,6-6,9-3,3,19-33,19-82,21-119,0-14,19-102,41-92,27,11,16,90,2,116-4,6-25,40-24,40,11-4,42-63,45-75,6-18,2-39-3-57-4-13-18-39-18-49C478,473,479,474,486,479Z" fill="rgba(48,39,28,0.29)" fill-rule="evenodd"/><path d="M526,177c10,21,27,40,44,55,15,12,53,30,70,20,7-4,4-15,0-29-12-39-51-97-98-78-7,3-7,10-7,13,1,6,15,6,22,9,41,20,66,64,59,53-13-19-65-58-83-54C527,167,523,171,526,177Z" fill="rgba(48,39,28,0.29)" fill-rule="evenodd"/><path d="M518,73c-7-40-52-57-85-71-7-3-7-3-6,0,2,4,6,10,6,17,3,30,30,116,58,128a2.151,2.151,0,0,0,2-2c24-40-37-115-37-115,32,30,55,70,41,112-1,4-2,6-2,8,0,1,1,0,3-1C514,138,521,92,518,73Z" fill="rgba(48,39,28,0.29)" fill-rule="evenodd"/><path d="M388,244c1-6,0-18,0-26,1-8,2-11,2-19-1-7-4-19-8-26-5-7-10-10-17-15s-16-14-24-18c-9-5-17-5-26-5s-18,1-29,0c-10,0-22-2-34-2-13,0-26,2-34,3-8,2-11,4-6,8,4,3,17,9,27,17s16,19,23,28c6,8,13,15,19,22s11,15,15,21c5,7,10,12,17,15,7,2,16,2,25,4,10,2,18,5,24,7,7,1,11,0,12-1,1-2,0-4-3-13-3-8-7-22-14-33-6-12-13-21-26-28-13-8-32-15-45-19-13-5-22-8-16-7,5,1,24,6,39,11,14,5,24,9,32,16a91.412,91.412,0,0,1,20,24c6,9,9,19,12,26,3,8,5,13,8,16C384,252,386,251,388,244Z" fill="rgba(48,39,28,0.29)" fill-rule="evenodd"/><path d="M369,506c37,56,11,120-26,167-12,16-25,31-34,24-25-18-26-131-22-168,0-4,3-69,11-62,37,30,65,92,33,163-2,6,1,2,4-5,28-63,24-109-25-157-4-4-7-9-7-14C301,430,365,500,369,506Z" fill="rgba(48,39,28,0.29)" fill-rule="evenodd"/><path d="M175,564c33-9,57-1,75,28,20,32,23,82,13,118-4,15-40,89-59,81-10-4-20-24-28-47-7-18-33-181-7-164,6,4,18,16,25,24,34,35,21,75,16,118-2,13-2,20-1,13,6-21,14-64,12-85-4-35-25-56-49-79C168,568,167,567,175,564Z" fill="rgba(48,39,28,0.29)" fill-rule="evenodd"/><path d="M151,524c15-43-5-88-48-100-21-5-40-13-60-19-5-1-40-10-43-4v1c1,4,19,20,23,27,8,11,20,44,26,59,19,44,18,47,66,66,6,2,9,1,11,0,8-6,3-39-1-48-24-47-78-77-71-73,50,27,85,58,82,120C135,565,150,527,151,524Z" fill="rgba(48,39,28,0.29)" fill-rule="evenodd"/><path d="M293,385c-3-16-3-19,3-35,18-44,5-36-9-72-7-17-18-17-30-26-2-2-55-22-66-26-61-24-28-5-18,14,12,24,14,60,24,84,8,22,23,39,41,54,3,3,24,25,26,24,14-7-8-87-18-105-12-19-27-34-46-47l2,1c20,14,36,25,49,47,25,45,12,65,21,103,1,4,3,3,6,3C287,402,295,396,293,385Z" fill="rgba(48,39,28,0.29)" fill-rule="evenodd"/><path d="M548,496c2-1,5-2,6-3,1,0-56-32-68-31-4,1-8,2-8,3,0,2,59,29,65,31C544,496,545,497,548,496Z" fill="rgba(48,39,28,0.29)" fill-rule="evenodd"/><path d="M383,430c-1,2-3,2-4,3-4,3-34,1-41,1-18-1-29,1-46,6-4,1-4,1-4-1,1-2,2-5,3-7s1-2,6-4c16-3,72-8,82-3A6.033,6.033,0,0,1,383,430Z" fill="rgba(48,39,28,0.29)" fill-rule="evenodd"/><path d="M650,547c0-21-32-21-32,0,0,19,29,21,32,2Z" fill="rgba(48,39,28,0.29)" fill-rule="evenodd"/><path d="M622,503c-25,0-25,29,0,29C646,532,646,503,622,503Z" fill="rgba(48,39,28,0.29)" fill-rule="evenodd"/><path d="M614,552c0-8-7-14-16-14s-16,6-16,14C582,571,614,571,614,552Z" fill="rgba(48,39,28,0.29)" fill-rule="evenodd"/><path d="M580,553c0-19-32-19-32,0S580,572,580,553Z" fill="rgba(48,39,28,0.29)" fill-rule="evenodd"/><path d="M602,526c0-19-32-19-32,0S602,545,602,526Z" fill="rgba(48,39,28,0.29)" fill-rule="evenodd"/><path d="M554,499c-21,0-21,29,0,29S575,499,554,499Z" fill="rgba(48,39,28,0.29)" fill-rule="evenodd"/><path d="M594,482c-22,0-22,29,0,29C615,511,615,482,594,482Z" fill="rgba(48,39,28,0.29)" fill-rule="evenodd"/><path d="M628,468c0-19-32-19-32,0S628,487,628,468Z" fill="rgba(48,39,28,0.29)" fill-rule="evenodd"/><path d="M569,463c-21,0-21,29,0,29C591,492,591,463,569,463Z" fill="rgba(48,39,28,0.29)" fill-rule="evenodd"/><path d="M199,507c3,5-39,56-50,65-3,3-7,8-20,28-8,11-55,90-66,86-3-1-7-3-8-6-3-7,65-97,73-108,10-12,56-64,65-67C196,504,198,506,199,507Z" fill="rgba(48,39,28,0.29)" fill-rule="evenodd"/><path d="M490,421c0-20-32-20-32,0C458,440,490,440,490,421Z" fill="rgba(48,39,28,0.29)" fill-rule="evenodd"/><path d="M473,481c0-19-32-19-32,0S473,500,473,481Z" fill="rgba(48,39,28,0.29)" fill-rule="evenodd"/><path d="M488,450c0-19-32-19-32,0C456,470,488,470,488,450Z" fill="rgba(48,39,28,0.29)" fill-rule="evenodd"/><path d="M455,448c0-19-33-19-33,0S455,467,455,448Z" fill="rgba(48,39,28,0.29)" fill-rule="evenodd"/><path d="M437,498c0-19-33-19-33,0S437,517,437,498Z" fill="rgba(48,39,28,0.29)" fill-rule="evenodd"/><path d="M456,417c0-19-32-19-32,0S456,436,456,417Z" fill="rgba(48,39,28,0.29)" fill-rule="evenodd"/><path d="M420,425c0-19-32-19-32,0S420,444,420,425Z" fill="rgba(48,39,28,0.29)" fill-rule="evenodd"/><path d="M400,453c0-19-33-19-33,0S400,472,400,453Z" fill="rgba(48,39,28,0.29)" fill-rule="evenodd"/><path d="M428,469c0-19-33-19-33,0S428,488,428,469Z" fill="rgba(48,39,28,0.29)" fill-rule="evenodd"/><path d="M414,309c0-19-32-19-32,0S414,328,414,309Z" fill="rgba(48,39,28,0.29)" fill-rule="evenodd"/><path d="M447,300c0-19-32-19-32,0S447,319,447,300Z" fill="rgba(48,39,28,0.29)" fill-rule="evenodd"/><path d="M456,259c-21,0-21,29,0,29S477,259,456,259Z" fill="rgba(48,39,28,0.29)" fill-rule="evenodd"/><path d="M429,270c0-19-33-19-33,0S429,289,429,270Z" fill="rgba(48,39,28,0.29)" fill-rule="evenodd"/><path d="M483,233c0-19-33-19-33,0S483,252,483,233Z" fill="rgba(48,39,28,0.29)" fill-rule="evenodd"/><path d="M452,247c-2-18-34-19-33,0S453,266,452,247Z" fill="rgba(48,39,28,0.29)" fill-rule="evenodd"/><path d="M426,227c0-19-32-19-32,0S426,246,426,227Z" fill="rgba(48,39,28,0.29)" fill-rule="evenodd"/><path d="M394,278c0-19-33-19-33,0S394,297,394,278Z" fill="rgba(48,39,28,0.29)" fill-rule="evenodd"/><path d="M459,210c0-20-32-20-32,0C427,229,459,229,459,210Z" fill="rgba(48,39,28,0.29)" fill-rule="evenodd"/><path d="M515,183c0-19-33-19-33,0S515,202,515,183Z" fill="rgba(48,39,28,0.29)" fill-rule="evenodd"/><path d="M532,155c0-19-32-19-32,0S532,174,532,155Z" fill="rgba(48,39,28,0.29)" fill-rule="evenodd"/><path d="M493,159c0-19-33-19-33,0S493,178,493,159Z" fill="rgba(48,39,28,0.29)" fill-rule="evenodd"/><path d="M380,329c-7,24-56,74-76,99-2,2-7,5-9,5-1-1,0-4,1-7,1-1,78-102,81-104C379,320,381,323,380,329Z" fill="rgba(48,39,28,0.29)" fill-rule="evenodd"/><path d="M460,203c-1,2-5-4-6-5-2-2,12-19,15-21,2-1,7-1,8,0C477,178,461,200,460,203Z" fill="rgba(48,39,28,0.29)" fill-rule="evenodd"/><path d="M263,415c0-19-33-19-33,0C230,435,263,435,263,415Z" fill="rgba(48,39,28,0.29)" fill-rule="evenodd"/><path d="M287,440c0-19-32-19-32,0S287,459,287,440Z" fill="rgba(48,39,28,0.29)" fill-rule="evenodd"/><path d="M231,425c0-19-33-19-33,0S231,444,231,425Z" fill="rgba(48,39,28,0.29)" fill-rule="evenodd"/><path d="M255,452c0-19-32-19-32,0C223,472,255,472,255,452Z" fill="rgba(48,39,28,0.29)" fill-rule="evenodd"/><path d="M287,473c0-19-32-19-32,0S287,492,287,473Z" fill="rgba(48,39,28,0.29)" fill-rule="evenodd"/><path d="M264,499c0-19-32-19-32,0S264,518,264,499Z" fill="rgba(48,39,28,0.29)" fill-rule="evenodd"/><path d="M215,455c0-19-32-19-32,0S215,474,215,455Z" fill="rgba(48,39,28,0.29)" fill-rule="evenodd"/><path d="M236,480c0-20-33-20-33,0C203,499,236,499,236,480Z" fill="rgba(48,39,28,0.29)" fill-rule="evenodd"/><path d="M232,514c0-19-33-19-33,0S232,533,232,514Z" fill="rgba(48,39,28,0.29)" fill-rule="evenodd"/><path d="M202,486c0-19-33-19-33,0S202,505,202,486Z" fill="rgba(48,39,28,0.29)" fill-rule="evenodd"/><path d="M503,458c24,2,59-14,72-31,1-1,15-34,16-35,2-6-2-23-4-29-6-17-14-75-15-62-2,23-19,39-32,57-6,8-18,22-23,30-5,9-19,51-9,54,4,2,12-3,21-9,8-6,17-13,22-23,9-14,17-61,17-61,3,4-3,35-4,41-6,25-12,34-34,48-9,6-27,12-33,18C496,458,497,458,503,458Z" fill="rgba(48,39,28,0.29)" fill-rule="evenodd"/><text transform="translate(0 806)" fill="rgba(48,39,28,0.29)" font-size="5" font-family="Arial-BoldMT, Arial" font-weight="700"><tspan x="0" y="0">Created by TUTUK ISTUNINGRUM</tspan></text><text transform="translate(0 811)" fill="rgba(48,39,28,0.29)" font-size="5" font-family="Arial-BoldMT, Arial" font-weight="700"><tspan x="0" y="0">from the Noun Project</tspan></text></g></svg>