<svg xmlns="http://www.w3.org/2000/svg" xmlns:xlink="http://www.w3.org/1999/xlink" version="1.0" x="0px" y="0px" viewBox="0 0 100 125" enable-background="new 0 0 100 100" xml:space="preserve"><g><path d="M50,18c-14.118,0-25.604,14.355-25.604,32c0,17.645,11.486,32,25.604,32s25.604-14.355,25.604-32   C75.604,32.355,64.118,18,50,18z M26.335,50c0-15.889,9.757-28.929,22.058-29.983c-4.312,9.177-1.943,17.461,0.567,26.203   c2.854,9.93,5.784,20.2,0.38,33.819C36.596,79.592,26.335,66.295,26.335,50z M51.427,80.001c5.24-13.879,2.153-24.722-0.603-34.317   c-2.596-9.031-4.825-16.857-0.235-25.726C63.366,20.358,73.665,33.676,73.665,50C73.665,65.967,63.813,79.06,51.427,80.001z"/><path d="M64.773,32.35c-1.68-2.455-3.666-4.446-5.905-5.918c-0.447-0.293-1.048-0.17-1.344,0.278   c-0.293,0.447-0.169,1.048,0.277,1.343c2.027,1.333,3.835,3.147,5.371,5.393c3.1,4.526,4.808,10.405,4.808,16.555   c0,0.536,0.434,0.97,0.97,0.97c0.535,0,0.97-0.434,0.97-0.97C69.92,43.463,68.092,37.195,64.773,32.35z"/><path d="M68.629,54.748c-0.525-0.087-1.029,0.265-1.119,0.792c-0.13,0.753-0.284,1.488-0.459,2.186   c-0.13,0.52,0.185,1.046,0.705,1.176c0.079,0.021,0.158,0.029,0.236,0.029c0.434,0,0.83-0.293,0.939-0.733   c0.187-0.744,0.352-1.527,0.489-2.33C69.512,55.34,69.157,54.839,68.629,54.748z"/></g><text x="0" y="115" fill="#000000" font-size="5px" font-weight="bold" font-family="'Helvetica Neue', Helvetica, Arial-Unicode, Arial, Sans-serif">Created by Mat fine</text><text x="0" y="120" fill="#000000" font-size="5px" font-weight="bold" font-family="'Helvetica Neue', Helvetica, Arial-Unicode, Arial, Sans-serif">from the Noun Project</text></svg>