<svg xmlns="http://www.w3.org/2000/svg" width="60.147" height="88.686" viewBox="0 0 60.147 88.686"><g transform="translate(70.079 -1.748)"><path d="M72.146,89.2V77.376c0-.019-.011-.035-.012-.055a1.444,1.444,0,0,0-.095-.466c-.008-.019-.008-.043-.017-.062a1.462,1.462,0,0,0-.3-.443,1.327,1.327,0,0,0-.134-.1,1.467,1.467,0,0,0-.227-.176L55.606,67.631V62.7l5.76-38.387a1.321,1.321,0,0,0,.015-.231,18.5,18.5,0,0,0,.239-2.873,19.55,19.55,0,0,0-39.095,0,18.483,18.483,0,0,0,.239,2.872,1.492,1.492,0,0,0,.015.232L28.541,62.7v4.926L12.784,76.079a1.466,1.466,0,0,0-.227.176,1.329,1.329,0,0,0-.134.1,1.462,1.462,0,0,0-.3.443c-.009.019-.009.043-.017.062a1.444,1.444,0,0,0-.095.466c0,.019-.012.035-.012.055V89.208a1.491,1.491,0,0,0,1.5,1.478h57.14a1.517,1.517,0,0,0,1.066-.436A1.465,1.465,0,0,0,72.146,89.2ZM51.554,7.912H32.6a16.681,16.681,0,0,1,18.961,0ZM25.793,24.134a1.667,1.667,0,0,0-.02-.272,15.777,15.777,0,0,1,3.55-12.994h25.5a15.777,15.777,0,0,1,3.55,12.994,1.617,1.617,0,0,0-.018.269L52.8,61.119H34.555v2.956H52.6v2.956H31.548V62.6a1.292,1.292,0,0,0-.017-.216Zm4.634,45.853H53.719L64.745,75.9H19.4ZM69.139,87.722H15.008V78.854H69.139Z" transform="translate(-82.078 -0.252)"/></g></svg>