<svg height="512" viewBox="0 0 64 64" width="512" xmlns="http://www.w3.org/2000/svg"><g id="Automatic_coffee_machine" data-name="Automatic coffee machine"><path d="m62 19v-12a5.006 5.006 0 0 0 -5-5h-50a5.006 5.006 0 0 0 -5 5v12a5.009 5.009 0 0 0 4 4.9v2.1h-3a1 1 0 0 0 -1 1v4a1 1 0 0 0 1 1h3v20h-1a3 3 0 0 0 -3 3v4a3 3 0 0 0 3 3h54a3 3 0 0 0 3-3v-4a3 3 0 0 0 -3-3h-1v-20h3a1 1 0 0 0 1-1v-4a1 1 0 0 0 -1-1h-3v-2.1a5.009 5.009 0 0 0 4-4.9zm-58 0v-12a3 3 0 0 1 3-3h50a3 3 0 0 1 3 3v12a3 3 0 0 1 -3 3h-50a3 3 0 0 1 -3-3zm38 13h2v2h-2zm-4-2v-6h10v6zm-18 2h2v2h-2zm-4-2v-6h10v6zm-8-6h6v2h-6zm-4 4h10v2h-10zm56 27v4a1 1 0 0 1 -1 1h-54a1 1 0 0 1 -1-1v-4a1 1 0 0 1 1-1h54a1 1 0 0 1 1 1zm-44-8v-1h10v1a5 5 0 0 1 -10 0zm-4-3a2 2 0 0 1 2-2v4a2 2 0 0 1 -2-2zm14 0h-10v-2h10zm12 3v-1h10v1a5 5 0 0 1 -10 0zm12-5a2 2 0 0 1 0 4zm-2 2h-10v-2h10zm8 8h-8.111a6.978 6.978 0 0 0 2.031-4h.08a4 4 0 0 0 0-8h-13a1 1 0 0 0 -1 1v6a6.973 6.973 0 0 0 2.111 5h-12.222a6.973 6.973 0 0 0 2.111-5v-6a1 1 0 0 0 -1-1h-13a4 4 0 0 0 0 8h.08a6.978 6.978 0 0 0 2.031 4h-8.111v-20h10v3a1 1 0 0 0 1 1h4a1 1 0 0 0 1-1v-3h3a1 1 0 0 0 1-1v-7h8v7a1 1 0 0 0 1 1h3v3a1 1 0 0 0 1 1h4a1 1 0 0 0 1-1v-3h10zm4-22h-10v-2h10zm-10-4v-2h6v2z"/><path d="m21 20a7 7 0 1 0 -7-7 7.009 7.009 0 0 0 7 7zm-1-11.9v4.9h2v-4.9a5 5 0 1 1 -2 0z"/><path d="m43 20a7 7 0 1 0 -7-7 7.009 7.009 0 0 0 7 7zm-1-11.9v4.9h2v-4.9a5 5 0 1 1 -2 0z"/><path d="m9 12a3 3 0 1 0 -3-3 3 3 0 0 0 3 3zm0-4a1 1 0 1 1 -1 1 1 1 0 0 1 1-1z"/><path d="m12 17a3 3 0 1 0 -3 3 3 3 0 0 0 3-3zm-4 0a1 1 0 1 1 1 1 1 1 0 0 1 -1-1z"/><path d="m55 12a3 3 0 1 0 -3-3 3 3 0 0 0 3 3zm0-4a1 1 0 1 1 -1 1 1 1 0 0 1 1-1z"/><path d="m55 20a3 3 0 1 0 -3-3 3 3 0 0 0 3 3zm0-4a1 1 0 1 1 -1 1 1 1 0 0 1 1-1z"/><path d="m30 8h4v2h-4z"/><path d="m30 16h4v2h-4z"/></g></svg>