<?xml version="1.0" encoding="iso-8859-1"?>
<!-- Generator: Adobe Illustrator 19.0.0, SVG Export Plug-In . SVG Version: 6.00 Build 0)  -->
<svg version="1.1" id="Capa_1" xmlns="http://www.w3.org/2000/svg" xmlns:xlink="http://www.w3.org/1999/xlink" x="0px" y="0px"
	 viewBox="0 0 512 512" style="enable-background:new 0 0 512 512;" xml:space="preserve">
<g>
	<g>
		<path d="M349.867,34.133H162.133c-4.71,0-8.533,3.823-8.533,8.533v68.907c-0.179,37.222,19.302,71.142,51.2,89.737v46.157
			c0,4.71,3.823,8.533,8.533,8.533h85.333c4.719,0,8.533-3.823,8.533-8.533V201.31c31.77-18.526,51.251-52.301,51.2-89.353V42.667
			C358.4,37.956,354.586,34.133,349.867,34.133z M341.333,111.974c0.043,32.41-17.809,61.807-46.592,76.715
			c-2.833,1.468-4.608,4.386-4.608,7.578v42.667h-68.267v-42.667c0-3.191-1.775-6.11-4.608-7.578
			c-28.902-14.967-46.754-44.484-46.592-77.073V51.2h170.667V111.974z"/>
	</g>
</g>
<g>
	<g>
		<path d="M349.867,0H162.133c-4.71,0-8.533,3.823-8.533,8.533v34.133c0,4.71,3.823,8.533,8.533,8.533h187.733
			c4.719,0,8.533-3.823,8.533-8.533V8.533C358.4,3.823,354.586,0,349.867,0z M341.333,34.133H170.667V17.067h170.667V34.133z"/>
	</g>
</g>
<g>
	<g>
		<path d="M392.533,460.8H119.467c-4.71,0-8.533,3.814-8.533,8.533v34.133c0,4.719,3.823,8.533,8.533,8.533h273.067
			c4.719,0,8.533-3.814,8.533-8.533v-34.133C401.067,464.614,397.252,460.8,392.533,460.8z M384,494.933H128v-17.067h256V494.933z"
			/>
	</g>
</g>
<g>
	<g>
		<path d="M375.39,468.181l-13.995-102.4l-16.913,2.313l12.672,92.706H154.837l23.279-170.667h155.767l5.99,43.819l16.913-2.313
			l-6.997-51.2c-0.58-4.224-4.19-7.373-8.457-7.373H170.667c-4.267,0-7.876,3.149-8.448,7.381l-25.6,187.733
			c-0.333,2.44,0.401,4.907,2.022,6.758c1.621,1.86,3.959,2.927,6.426,2.927h221.867c2.466,0,4.804-1.067,6.434-2.918
			C374.98,473.088,375.723,470.622,375.39,468.181z"/>
	</g>
</g>
<g>
	<g>
		<path d="M315.733,273.067H196.267c-4.71,0-8.533,3.814-8.533,8.533v85.333c0,4.719,3.823,8.533,8.533,8.533h119.467
			c4.719,0,8.533-3.814,8.533-8.533V281.6C324.267,276.881,320.452,273.067,315.733,273.067z M307.2,358.4H204.8v-68.267h102.4
			V358.4z"/>
	</g>
</g>
<g>
	<g>
		<path d="M392.533,298.667h-25.6c-2.85,0-5.513,1.425-7.1,3.797l-14.532,21.803h-29.568v17.067h34.133
			c2.85,0,5.513-1.425,7.1-3.797l14.532-21.803H384V358.4h-68.267v17.067h76.8c4.719,0,8.533-3.814,8.533-8.533V307.2
			C401.067,302.481,397.252,298.667,392.533,298.667z"/>
	</g>
</g>
<g>
	<g>
		<path d="M315.733,392.533c-4.719,0-8.533,3.814-8.533,8.533v25.6h-10.385l-0.708-2.85c-4.634-18.398-21.12-31.258-40.115-31.283
			c-18.978,0.026-35.473,12.885-40.107,31.317l-0.7,2.816H204.8v-25.6c0-4.719-3.823-8.533-8.533-8.533s-8.533,3.814-8.533,8.533
			V435.2c0,4.719,3.823,8.533,8.533,8.533h25.6c3.917,0,7.339-2.671,8.277-6.485l2.295-9.267
			c2.722-10.803,12.407-18.372,23.543-18.381c11.153,0.009,20.847,7.569,23.561,18.347l2.304,9.301
			c0.947,3.814,4.361,6.485,8.286,6.485h25.6c4.719,0,8.533-3.814,8.533-8.533v-34.133
			C324.267,396.348,320.452,392.533,315.733,392.533z"/>
	</g>
</g>
<g>
	<g>
		<path d="M196.267,102.4c-4.71,0-8.533,3.823-8.533,8.533v8.533c0,4.71,3.823,8.533,8.533,8.533s8.533-3.823,8.533-8.533v-8.533
			C204.8,106.223,200.977,102.4,196.267,102.4z"/>
	</g>
</g>
<g>
	<g>
		<path d="M236.433,130.5l-8.533-8.533c-3.336-3.337-8.73-3.337-12.066,0c-3.337,3.336-3.337,8.73,0,12.066l8.533,8.533
			c1.664,1.664,3.849,2.5,6.033,2.5c2.185,0,4.369-0.836,6.033-2.5C239.77,139.23,239.77,133.837,236.433,130.5z"/>
	</g>
</g>
<g>
	<g>
		<path d="M256,102.4h-8.533c-4.71,0-8.533,3.823-8.533,8.533s3.823,8.533,8.533,8.533H256c4.719,0,8.533-3.823,8.533-8.533
			S260.719,102.4,256,102.4z"/>
	</g>
</g>
<g>
	<g>
		<path d="M236.433,79.3c-3.336-3.337-8.73-3.337-12.066,0l-8.533,8.533c-3.337,3.337-3.337,8.73,0,12.066
			c1.664,1.664,3.849,2.5,6.033,2.5c2.185,0,4.369-0.836,6.033-2.5l8.533-8.533C239.77,88.03,239.77,82.637,236.433,79.3z"/>
	</g>
</g>
<g>
	<g>
		<path d="M281.6,102.4c-4.719,0-8.533,3.823-8.533,8.533v8.533c0,4.71,3.814,8.533,8.533,8.533c4.719,0,8.533-3.823,8.533-8.533
			v-8.533C290.133,106.223,286.319,102.4,281.6,102.4z"/>
	</g>
</g>
<g>
	<g>
		<path d="M244.966,173.167l-8.533-8.533c-3.336-3.337-8.73-3.336-12.066,0c-3.337,3.337-3.337,8.73,0,12.066l8.533,8.533
			c1.664,1.664,3.849,2.5,6.033,2.5c2.185,0,4.369-0.836,6.033-2.5C248.303,181.897,248.303,176.503,244.966,173.167z"/>
	</g>
</g>
<g>
	<g>
		<path d="M290.133,162.133H281.6c-4.719,0-8.533,3.823-8.533,8.533s3.814,8.533,8.533,8.533h8.533c4.719,0,8.533-3.823,8.533-8.533
			S294.852,162.133,290.133,162.133z"/>
	</g>
</g>
<g>
	<g>
		<path d="M270.566,139.034c-3.337-3.337-8.73-3.337-12.066,0l-8.533,8.533c-3.337,3.337-3.337,8.73,0,12.066
			c1.664,1.664,3.849,2.5,6.033,2.5c2.185,0,4.369-0.836,6.033-2.5l8.533-8.533C273.903,147.763,273.903,142.37,270.566,139.034z"/>
	</g>
</g>
<g>
	<g>
		<path d="M307.2,136.533h-8.533c-4.719,0-8.533,3.823-8.533,8.533c0,4.71,3.814,8.533,8.533,8.533h8.533
			c4.719,0,8.533-3.823,8.533-8.533C315.733,140.356,311.919,136.533,307.2,136.533z"/>
	</g>
</g>
<g>
	<g>
		<path d="M204.8,145.067c-4.71,0-8.533,3.823-8.533,8.533v8.533c0,4.71,3.823,8.533,8.533,8.533c4.71,0,8.533-3.823,8.533-8.533
			V153.6C213.333,148.89,209.51,145.067,204.8,145.067z"/>
	</g>
</g>
<g>
	<g>
		<path d="M321.766,113.434l-8.533-8.533c-3.337-3.337-8.73-3.337-12.066,0c-3.336,3.337-3.336,8.73,0,12.066l8.533,8.533
			c1.664,1.664,3.849,2.5,6.033,2.5c2.185,0,4.369-0.836,6.033-2.5C325.103,122.163,325.103,116.77,321.766,113.434z"/>
	</g>
</g>
<g>
	<g>
		<path d="M270.566,190.234c-3.337-3.337-8.73-3.337-12.066,0l-8.533,8.533c-3.337,3.336-3.337,8.73,0,12.066
			c1.664,1.664,3.849,2.5,6.033,2.5c2.185,0,4.369-0.836,6.033-2.5l8.533-8.533C273.903,198.963,273.903,193.57,270.566,190.234z"/>
	</g>
</g>
<g>
	<g>
		<path d="M315.733,238.933H196.267c-4.71,0-8.533,3.823-8.533,8.533V281.6c0,4.719,3.823,8.533,8.533,8.533h119.467
			c4.719,0,8.533-3.814,8.533-8.533v-34.133C324.267,242.756,320.452,238.933,315.733,238.933z M307.2,273.067H204.8V256h102.4
			V273.067z"/>
	</g>
</g>
<g>
</g>
<g>
</g>
<g>
</g>
<g>
</g>
<g>
</g>
<g>
</g>
<g>
</g>
<g>
</g>
<g>
</g>
<g>
</g>
<g>
</g>
<g>
</g>
<g>
</g>
<g>
</g>
<g>
</g>
</svg>
