<svg xmlns="http://www.w3.org/2000/svg" width="124.583" height="124.583" viewBox="0 0 124.583 124.583"><g transform="translate(-122.5 -51.5)"><g transform="translate(1822 1436)"><g transform="translate(-1689.583 -1327.503)"><path d="M252.3,927.544h-1.469l-.2-1.317a2.009,2.009,0,0,0-.735-.457,2.986,2.986,0,0,0-1.046-.166,2.321,2.321,0,0,0-1.982.935,3.976,3.976,0,0,0-.693,2.439v.346a4.012,4.012,0,0,0,.693,2.446,2.267,2.267,0,0,0,1.954.942,3.284,3.284,0,0,0,1.067-.166,1.724,1.724,0,0,0,.748-.457l.2-1.317h1.469v1.954a4.357,4.357,0,0,1-1.518,1.1,5.119,5.119,0,0,1-2.072.409,4.225,4.225,0,0,1-3.25-1.372,5,5,0,0,1-1.268-3.527v-.333a5.034,5.034,0,0,1,1.261-3.527,4.2,4.2,0,0,1,3.257-1.379,4.951,4.951,0,0,1,2.065.416,4.386,4.386,0,0,1,1.525,1.1v1.926Z" transform="translate(-244.2 -924.065)" fill="#30271c"/><path d="M384.239,928.849a5.241,5.241,0,0,1-1.24,3.583,4.411,4.411,0,0,1-6.472,0,5.278,5.278,0,0,1-1.227-3.583V928.7a5.285,5.285,0,0,1,1.227-3.576,4.044,4.044,0,0,1,3.222-1.421,4.11,4.11,0,0,1,3.25,1.421,5.225,5.225,0,0,1,1.24,3.576Zm-1.975-.159a4.431,4.431,0,0,0-.638-2.488,2.116,2.116,0,0,0-1.885-.956,2.063,2.063,0,0,0-1.857.949,4.524,4.524,0,0,0-.61,2.495v.159a4.557,4.557,0,0,0,.617,2.508,2.064,2.064,0,0,0,1.857.949,2.118,2.118,0,0,0,1.885-.949,4.456,4.456,0,0,0,.631-2.509Z" transform="translate(-366.215 -923.693)" fill="#30271c"/><path d="M515.7,934.476l1.053-.2v-7.082l-1.053-.2V925.8h7.851v2.7h-1.518l-.09-1.178h-3.215v2.716h3.458v1.525h-3.458v2.709l1.06.2v1.185h-4.082v-1.185Z" transform="translate(-496.886 -925.648)" fill="#30271c"/><path d="M639.4,934.476l1.053-.2v-7.082l-1.053-.2V925.8h7.851v2.7h-1.518l-.09-1.178h-3.215v2.716h3.458v1.525h-3.458v2.709l1.06.2v1.185h-4.082v-1.185Z" transform="translate(-612.014 -925.648)" fill="#30271c"/><path d="M769.368,931.323h-3.34v2.82h3.181l.09-1.178h1.5v2.7H763v-1.185l1.053-.2v-7.082l-1.053-.2V925.8h7.8v2.7h-1.518l-.09-1.178h-3.16v2.481h3.34Z" transform="translate(-727.049 -925.648)" fill="#30271c"/><path d="M897.268,931.323h-3.34v2.82h3.181l.09-1.178h1.5v2.7h-7.8v-1.185l1.053-.2v-7.082l-1.053-.2V925.8h7.789v2.7h-1.518l-.09-1.178h-3.16v2.481h3.34v1.518Z" transform="translate(-846.086 -925.648)" fill="#30271c"/><path d="M1067.8,926.992V925.8h4.082v1.192l-1.06.2v2.848h4.026v-2.848l-1.06-.2V925.8h4.088v1.192l-1.06.2v7.082l1.06.2v1.185h-4.082v-1.185l1.06-.2v-2.709h-4.026v2.709l1.06.2v1.185h-4.082v-1.185l1.053-.2v-7.082Z" transform="translate(-1010.728 -925.648)" fill="#30271c"/><path d="M1234.339,928.849a5.24,5.24,0,0,1-1.24,3.583,4.411,4.411,0,0,1-6.472,0,5.278,5.278,0,0,1-1.227-3.583V928.7a5.284,5.284,0,0,1,1.227-3.576,4.043,4.043,0,0,1,3.222-1.421,4.11,4.11,0,0,1,3.25,1.421,5.225,5.225,0,0,1,1.24,3.576Zm-1.968-.159a4.43,4.43,0,0,0-.638-2.488,2.116,2.116,0,0,0-1.885-.956,2.063,2.063,0,0,0-1.857.949,4.524,4.524,0,0,0-.61,2.495v.159a4.557,4.557,0,0,0,.617,2.508,2.064,2.064,0,0,0,1.857.949,2.118,2.118,0,0,0,1.885-.949,4.456,4.456,0,0,0,.631-2.509Z" transform="translate(-1157.406 -923.693)" fill="#30271c"/><path d="M1368.2,925.8v1.192l-1.06.2v5.149a1.888,1.888,0,0,0,.527,1.462,2.028,2.028,0,0,0,1.441.485,2.093,2.093,0,0,0,1.455-.478,1.877,1.877,0,0,0,.527-1.462V927.2l-1.053-.2v-1.192h4.082v1.185l-1.053.2v5.149a3.142,3.142,0,0,1-1.095,2.564,5,5,0,0,1-5.724,0,3.137,3.137,0,0,1-1.088-2.564v-5.149l-1.053-.2V925.8h4.1Z" transform="translate(-1286.495 -925.647)" fill="#30271c"/><path d="M1528.313,926.9h-1.483l-.256-1.358a2.612,2.612,0,0,0-.755-.284,4.3,4.3,0,0,0-1.053-.125,2,2,0,0,0-1.254.34,1.06,1.06,0,0,0-.443.887.966.966,0,0,0,.464.825,6.358,6.358,0,0,0,1.6.679,6.236,6.236,0,0,1,2.474,1.2,2.5,2.5,0,0,1,.846,1.961,2.326,2.326,0,0,1-1,2,4.4,4.4,0,0,1-2.64.735,5.659,5.659,0,0,1-2.114-.374,4.263,4.263,0,0,1-1.573-1.033v-2.058h1.531l.208,1.4a2.458,2.458,0,0,0,.811.4,3.9,3.9,0,0,0,1.143.159,1.953,1.953,0,0,0,1.234-.333,1.069,1.069,0,0,0,.423-.887,1.135,1.135,0,0,0-.4-.915,4.1,4.1,0,0,0-1.414-.651,8.008,8.008,0,0,1-2.654-1.206,2.279,2.279,0,0,1-.9-1.913,2.347,2.347,0,0,1,1.019-1.961,4.265,4.265,0,0,1,2.557-.783,5.989,5.989,0,0,1,2.072.346,4.788,4.788,0,0,1,1.573.922v2.03Z" transform="translate(-1432.615 -923.6)" fill="#30271c"/><path d="M1644.869,931.323h-3.34v2.82h3.181l.09-1.178h1.5v2.7h-7.8v-1.185l1.053-.2v-7.082l-1.053-.2V925.8h7.8v2.7h-1.525l-.09-1.178h-3.16v2.481h3.34v1.518Z" transform="translate(-1541.88 -925.648)" fill="#30271c"/></g><path d="M666.124,360.675a17.473,17.473,0,0,0-8.8,2.793c-1.566-6.264-5.267-10.568-9.695-10.568s-8.129,4.3-9.695,10.568a17.474,17.474,0,0,0-8.8-2.793,7.758,7.758,0,0,0-5.634,2.1c-2.044,2.044-2.626,5.26-1.635,9.057a24.251,24.251,0,0,0,6.451,10.6c4.331,4.331,9.577,6.923,14.026,6.923h0a7.888,7.888,0,0,0,5.287-1.795,7.888,7.888,0,0,0,5.287,1.795c4.449,0,9.688-2.585,14.026-6.923a24.251,24.251,0,0,0,6.452-10.6c.991-3.791.416-7.013-1.635-9.057A7.77,7.77,0,0,0,666.124,360.675Zm0,1.788a6.3,6.3,0,0,1,3.922,1.185c-.755,1.566-3.527,6.32-10.97,10.589-.471.27-.922.54-1.358.818a29.265,29.265,0,0,0-.007-9.708A16.334,16.334,0,0,1,666.124,362.463Zm-36.99,0a16.242,16.242,0,0,1,8.406,2.89,28.827,28.827,0,0,0-.409,4.858,29.5,29.5,0,0,0,.4,4.851c-.437-.27-.887-.547-1.358-.818-7.436-4.276-10.207-9.029-10.963-10.6A6.3,6.3,0,0,1,629.134,362.463Zm13.208,25.1h0c-3.922,0-8.815-2.453-12.757-6.4a22.5,22.5,0,0,1-5.987-9.785,8.421,8.421,0,0,1,.36-6.244c1.213,2.217,4.324,6.625,11.337,10.651,1.026.589,1.954,1.185,2.807,1.781,1.317,4.726,3.874,8.239,7.027,9.466A7.009,7.009,0,0,1,642.342,387.562Zm4.054-16.1c-.208.88-.374,1.732-.506,2.543a32.439,32.439,0,0,0-.43,5,27.085,27.085,0,0,0,.152,3.063,20.475,20.475,0,0,0,.672,3.479c-.1-.028-.194-.062-.291-.1s-.194-.069-.3-.111c-2.03-.818-3.791-2.9-5-5.766a21.162,21.162,0,0,1-1.026-3.084,26.114,26.114,0,0,1-.748-6.278,26.879,26.879,0,0,1,.256-3.714c.09-.672.215-1.331.353-1.968,1.206-5.44,4.089-9.383,7.5-9.792a16.085,16.085,0,0,1,.6,2.328,26.932,26.932,0,0,1,0,8.808,35.569,35.569,0,0,1-.866,4.1C646.631,370.48,646.506,370.972,646.4,371.458Zm2.869,13.991a4.767,4.767,0,0,1-.977.229c-.021,0-.042.007-.062.007-.014-.042-.028-.09-.049-.139-.083-.249-.18-.561-.277-.936-.028-.111-.055-.236-.083-.353-.062-.27-.125-.575-.187-.9a23.451,23.451,0,0,1-.36-4.206c0-.672.021-1.379.076-2.141s.152-1.6.284-2.467c.042-.284.09-.568.139-.859.042-.243.1-.5.146-.748.159-.8.346-1.628.582-2.5,2.12-7.831,1.185-13.152.478-15.571,3.091.852,5.641,4.608,6.756,9.653.139.638.263,1.3.353,1.968a26.879,26.879,0,0,1,.256,3.714,26.108,26.108,0,0,1-.748,6.278,20.358,20.358,0,0,1-1.026,3.084c-1.22,2.862-2.98,4.941-5,5.765C649.458,385.372,649.361,385.414,649.264,385.448Zm22.4-14.067a22.436,22.436,0,0,1-5.987,9.785c-3.95,3.943-8.835,6.4-12.757,6.4a7.007,7.007,0,0,1-2.786-.534c3.153-1.227,5.717-4.74,7.027-9.466.852-.6,1.781-1.192,2.807-1.781,7.013-4.026,10.117-8.433,11.337-10.651A8.474,8.474,0,0,1,671.661,371.381Z" transform="translate(-2284.837 -1719.95)" fill="#30271c"/><circle cx="61.792" cy="61.792" r="61.792" transform="translate(-1699 -1384)" fill="none" stroke="#30271c" stroke-miterlimit="10" stroke-width="1"/><line x1="47.69" transform="translate(-1691.807 -1313.332)" fill="none" stroke="#30271c" stroke-linecap="round" stroke-miterlimit="10" stroke-width="1"/><line x2="38.619" transform="translate(-1691.738 -1331.508)" fill="none" stroke="#30271c" stroke-linecap="round" stroke-miterlimit="10" stroke-width="1"/><g transform="translate(-1695.667 -1380.667)"><path d="M58.458,0A58.458,58.458,0,1,1,0,58.458,58.458,58.458,0,0,1,58.458,0Z" transform="translate(0 0)" fill="none" stroke="#30271c" stroke-linecap="round" stroke-width="3" stroke-dasharray="0 10"/></g><path d="M212.1,1128.1a55.154,55.154,0,0,0,108.865,0" transform="translate(-1903.907 -2441.432)" fill="none" stroke="#30271c" stroke-linecap="round" stroke-miterlimit="10" stroke-width="1"/><path d="M321.819,250.14a55.151,55.151,0,0,0-108.719,0" transform="translate(-1904.838 -1581.648)" fill="none" stroke="#30271c" stroke-linecap="round" stroke-miterlimit="10" stroke-width="1"/><g transform="translate(-1646.718 -1314.198)"><path d="M951.527,1316.118a.614.614,0,0,1,1.227-.049l.908,19.9-.014.035a2.863,2.863,0,0,1-2.855,2.855l-1.337-.014a2.863,2.863,0,0,1-2.855-2.855v-.028l.894-19.916a.606.606,0,0,1,.651-.575.6.6,0,0,1,.568.638l-.887,19.881h0a1.578,1.578,0,0,0,.464,1.157,1.551,1.551,0,0,0,1.157.464l1.337.014a1.637,1.637,0,0,0,1.143-.478,1.589,1.589,0,0,0,.492-1.13Z" transform="translate(-940.791 -1301.621)" fill="#30271c"/><path d="M926.022,1150.827a4.1,4.1,0,0,0,.007,8.191h0a4.074,4.074,0,0,0,2.9-1.206h0a4.091,4.091,0,0,0-.014-5.786h0a4.1,4.1,0,0,0-2.89-1.2Zm-3.749.333a5.361,5.361,0,0,1,3.749-1.559h0a5.326,5.326,0,0,1,3.77,1.559h0a5.354,5.354,0,0,1,0,7.526h0a5.3,5.3,0,0,1-3.77,1.559h0a5.277,5.277,0,0,1-3.763-1.545,5.32,5.32,0,0,1,.014-7.54Z" transform="translate(-916.686 -1147.244)" fill="#30271c"/><path d="M894.392,1116.813a6.458,6.458,0,0,0-4.574,1.892,6.368,6.368,0,0,0-1.892,4.574h0a6.459,6.459,0,0,0,6.465,6.465,6.459,6.459,0,0,0,6.465-6.465,6.506,6.506,0,0,0-6.465-6.465Zm-5.433,1.032a7.647,7.647,0,0,1,5.419-2.245h0a7.666,7.666,0,0,1,7.685,7.685h0a7.681,7.681,0,1,1-15.363-.007h0A7.659,7.659,0,0,1,888.959,1117.845Z" transform="translate(-885.042 -1115.6)" fill="#30271c"/><path d="M865.661,1172.614a.609.609,0,0,1,.617.617.586.586,0,0,1-.6.6l-1.289.014a8.744,8.744,0,0,0-.256,1.019,9.083,9.083,0,0,0-.125,1.476,5.951,5.951,0,0,0,.139,1.462c.062.354.146.686.243,1.032l1.289-.014a.647.647,0,0,1,.617.617.614.614,0,0,1-.617.617H863.54l-.146-.4a8.657,8.657,0,0,1-.457-1.635,8.563,8.563,0,0,1-.159-1.684,9.855,9.855,0,0,1,.146-1.7,8.516,8.516,0,0,1,.457-1.635l.159-.409h.416Zm12.917,7.436a.617.617,0,1,1,0-1.234h1.275a7.065,7.065,0,0,0,.256-1.019,9.09,9.09,0,0,0,.125-1.476l.014.014a8.112,8.112,0,0,0-.139-1.49,9.941,9.941,0,0,0-.256-1.019h-1.275a.609.609,0,0,1-.617-.617.6.6,0,0,1,.6-.6H880.7l.146.4a8.659,8.659,0,0,1,.457,1.635,8.562,8.562,0,0,1,.159,1.684h0a9.853,9.853,0,0,1-.146,1.7,8.508,8.508,0,0,1-.457,1.635l-.159.409h-.416Z" transform="translate(-862.776 -1168.65)" fill="#30271c"/><path d="M963.144,1349.1a.617.617,0,1,1,0,1.234h-4.227a.617.617,0,0,1,0-1.234Z" transform="translate(-951.681 -1332.919)" fill="#30271c"/><path d="M973.248,1471.5a.586.586,0,0,1,.6-.6.609.609,0,0,1,.617.617l-.049,8.523a.609.609,0,0,1-.617.617.626.626,0,0,1-.6-.624Z" transform="translate(-965.548 -1446.272)" fill="#30271c"/><path d="M966.927,1155.651a.611.611,0,0,1,0-.859.6.6,0,0,1,.859,0l5.9,5.9a.6.6,0,0,1,0,.859.611.611,0,0,1-.859,0Z" transform="translate(-959.545 -1151.909)" fill="#30271c"/><path d="M941.157,1170.836a.631.631,0,0,1,0-.887.615.615,0,0,1,.873.014l6.611,6.611a.617.617,0,1,1-.873.873Z" transform="translate(-935.556 -1166.02)" fill="#30271c"/><path d="M925.892,1196.686a.6.6,0,0,1,0-.859.611.611,0,0,1,.859,0l5.9,5.9a.611.611,0,0,1,0,.859.6.6,0,0,1-.859,0Z" transform="translate(-921.351 -1190.103)" fill="#30271c"/><path d="M926.636,1161.4a.632.632,0,0,1-.887,0,.615.615,0,0,1,.014-.873l5.9-5.9a.611.611,0,0,1,.859,0,.628.628,0,0,1,.014.873Z" transform="translate(-921.223 -1151.758)" fill="#30271c"/><path d="M942.051,1177.476a.611.611,0,0,1-.859,0,.6.6,0,0,1,0-.859l6.625-6.625a.6.6,0,0,1,.859,0,.611.611,0,0,1,0,.859Z" transform="translate(-935.591 -1166.056)" fill="#30271c"/><path d="M967.73,1202.42a.618.618,0,1,1-.873-.873l5.9-5.9a.617.617,0,0,1,.873.873Z" transform="translate(-959.475 -1189.939)" fill="#30271c"/></g><line x1="47.69" transform="translate(-1630.632 -1313.332)" fill="none" stroke="#30271c" stroke-linecap="round" stroke-miterlimit="10" stroke-width="1"/><line x2="38.612" transform="translate(-1621.631 -1331.508)" fill="none" stroke="#30271c" stroke-linecap="round" stroke-miterlimit="10" stroke-width="1"/><g transform="translate(-1650.747 -1275.29)"><path d="M805.77,1697.815a1.4,1.4,0,0,1-.949-.672,1.554,1.554,0,0,1-.139-1.164l.028-.111a1.707,1.707,0,0,1,.638-1.026,1.252,1.252,0,0,1,1.1-.194,1.269,1.269,0,0,1,.866.6,1.5,1.5,0,0,1,.1,1.088l-.1.45-1.816-.437-.007.014a.78.78,0,0,0,.083.541.649.649,0,0,0,.437.312,1.745,1.745,0,0,0,.464.055,2.308,2.308,0,0,0,.437-.076l.1.561a1.717,1.717,0,0,1-.547.132A2.792,2.792,0,0,1,805.77,1697.815Zm.534-2.543a.441.441,0,0,0-.4.09.9.9,0,0,0-.27.423l.007.014,1,.243.021-.076a.675.675,0,0,0-.021-.444A.466.466,0,0,0,806.3,1695.272Z" transform="translate(-804.629 -1693.385)" fill="#30271c"/><path d="M856.054,1705.294l-.561-.1-.021-.4a.894.894,0,0,0-.194-.152,1.092,1.092,0,0,0-.277-.1.531.531,0,0,0-.367.042.31.31,0,0,0-.173.222.305.305,0,0,0,.083.256,1.34,1.34,0,0,0,.464.25,1.979,1.979,0,0,1,.79.478.757.757,0,0,1,.173.658.824.824,0,0,1-.471.617,1.523,1.523,0,0,1-.984.1,2.035,2.035,0,0,1-.638-.215,1.639,1.639,0,0,1-.478-.388l.111-.693.582.1.049.423a.489.489,0,0,0,.187.125,1.144,1.144,0,0,0,.263.076.676.676,0,0,0,.4-.028.284.284,0,0,0,.173-.229.279.279,0,0,0-.1-.256,1.46,1.46,0,0,0-.464-.263,2.036,2.036,0,0,1-.769-.471.731.731,0,0,1-.18-.645.881.881,0,0,1,.43-.617,1.328,1.328,0,0,1,.956-.125,2.34,2.34,0,0,1,.665.215,1.7,1.7,0,0,1,.464.333Z" transform="translate(-850.02 -1702.07)" fill="#30271c"/><path d="M904.134,1699.3l-.083.762.547.062-.062.589-.547-.062-.173,1.58a.362.362,0,0,0,.049.27.264.264,0,0,0,.194.1,1.247,1.247,0,0,0,.153.007,1.139,1.139,0,0,0,.145-.007l.007.617a2.1,2.1,0,0,1-.284.035,1.461,1.461,0,0,1-.3-.014.924.924,0,0,1-.645-.312,1.066,1.066,0,0,1-.152-.783l.173-1.587-.457-.049.062-.589.457.049.083-.762Z" transform="translate(-895.904 -1697.667)" fill="#30271c"/><path d="M939.739,1748.5l-.839-.055.049-.741.839.055Z" transform="translate(-929.596 -1742.806)" fill="#30271c"/><path d="M1011.859,1702.494l-.028-.554,1.289-1.524a2.9,2.9,0,0,0,.388-.589,1,1,0,0,0,.1-.437.632.632,0,0,0-.166-.429.5.5,0,0,0-.416-.153.525.525,0,0,0-.437.222.808.808,0,0,0-.125.533l-.818.042-.007-.014a1.292,1.292,0,0,1,.326-.984,1.388,1.388,0,0,1,1.026-.443,1.463,1.463,0,0,1,1.039.291,1.153,1.153,0,0,1,.416.88,1.286,1.286,0,0,1-.173.714,7.445,7.445,0,0,1-.651.88l-.707.852.007.014,1.088-.055.014-.416.644-.035.049,1.06Z" transform="translate(-997.295 -1696.699)" fill="#30271c"/><path d="M1067.206,1696.278a1.818,1.818,0,0,1-.229,1.3,1.33,1.33,0,0,1-.977.554,1.316,1.316,0,0,1-1.088-.3,1.854,1.854,0,0,1-.533-1.213l-.111-.922a1.832,1.832,0,0,1,.229-1.3,1.449,1.449,0,0,1,2.058-.243,1.821,1.821,0,0,1,.534,1.213Zm-.956-.908a1.374,1.374,0,0,0-.236-.707.5.5,0,0,0-.457-.18.476.476,0,0,0-.4.284,1.5,1.5,0,0,0-.062.748l.132,1.088a1.433,1.433,0,0,0,.236.721.5.5,0,0,0,.464.18.485.485,0,0,0,.4-.284,1.454,1.454,0,0,0,.056-.755Z" transform="translate(-1046.253 -1692.665)" fill="#30271c"/><path d="M1112.131,1690.822l.686-.215-.52-2.8-.707.132-.09-.478,1.483-.561.658,3.555.714-.042.09.5-2.224.416Z" transform="translate(-1090.235 -1686.219)" fill="#30271c"/><path d="M1155.919,1680.724a.644.644,0,0,0,.464-.388,1.245,1.245,0,0,0,.014-.8l-.014-.062a.948.948,0,0,1-.263.353.933.933,0,0,1-.388.194,1.158,1.158,0,0,1-.991-.146,1.587,1.587,0,0,1-.589-.949,1.522,1.522,0,0,1,.125-1.136,1.3,1.3,0,0,1,.873-.665,1.348,1.348,0,0,1,1.123.173,1.785,1.785,0,0,1,.693,1.109l.222.887a1.781,1.781,0,0,1-.118,1.344,1.522,1.522,0,0,1-1,.721,2.925,2.925,0,0,1-.45.069,2.4,2.4,0,0,1-.45-.021l-.055-.617a1.831,1.831,0,0,0,.388.007A1.8,1.8,0,0,0,1155.919,1680.724Zm-.194-1.338a.822.822,0,0,0,.34-.166.6.6,0,0,0,.187-.27l-.111-.437a1.281,1.281,0,0,0-.333-.645.491.491,0,0,0-.485-.125.478.478,0,0,0-.34.346,1.115,1.115,0,0,0-.007.624,1.16,1.16,0,0,0,.284.554A.474.474,0,0,0,1155.725,1679.386Z" transform="translate(-1129.88 -1677.07)" fill="#30271c"/></g><circle cx="0.589" cy="0.589" r="0.589" transform="translate(-1641.574 -1270.569)" fill="#30271c"/></g></g></svg>